<svg width="228" height="200" viewBox="0 0 228 200" fill="none" xmlns="http://www.w3.org/2000/svg">
<mask id="mask0" mask-type="alpha" maskUnits="userSpaceOnUse" x="0" y="0" width="228" height="200">
<rect width="228" height="200" rx="13" fill="#C4C4C4"/>
</mask>
<g mask="url(#mask0)">
<rect x="0.5" y="0.5" width="227" height="199" rx="12.5" fill="white" stroke="#BDBDBD"/>
<path fill-rule="evenodd" clip-rule="evenodd" d="M101.978 46.9173C102.311 46.2519 102.992 45.8315 103.736 45.8315H124.702C125.446 45.8315 126.127 46.2519 126.46 46.9173L131.701 57.3931C132.006 58.002 131.973 58.7251 131.615 59.3042C131.257 59.8833 130.624 60.2357 129.943 60.2357H98.4946C97.8134 60.2357 97.1808 59.8833 96.8226 59.3042C96.4645 58.7251 96.4319 58.002 96.7366 57.3931L101.978 46.9173ZM104.951 49.76L101.675 56.3073H126.763L123.487 49.76H104.951Z" fill="#BDBDBD"/>
<path fill-rule="evenodd" clip-rule="evenodd" d="M84.5174 60.2358C82.7082 60.2358 81.2416 61.7014 81.2416 63.5094V105.413C81.2416 107.221 82.7082 108.686 84.5174 108.686H143.92C145.729 108.686 147.196 107.221 147.196 105.413V63.5094C147.196 61.7014 145.729 60.2358 143.92 60.2358H84.5174ZM77.3105 63.5094C77.3105 59.5318 80.5372 56.3073 84.5174 56.3073H143.92C147.9 56.3073 151.127 59.5318 151.127 63.5094V105.413C151.127 109.39 147.9 112.615 143.92 112.615H84.5174C80.5372 112.615 77.3105 109.39 77.3105 105.413V63.5094Z" fill="#BDBDBD"/>
<path fill-rule="evenodd" clip-rule="evenodd" d="M98.2756 84.4609C98.2756 75.6619 105.413 68.529 114.218 68.529C123.023 68.529 130.161 75.6619 130.161 84.4609C130.161 93.2599 123.023 100.393 114.218 100.393C105.413 100.393 98.2756 93.2599 98.2756 84.4609ZM114.218 72.4574C107.584 72.4574 102.207 77.8315 102.207 84.4609C102.207 91.0903 107.584 96.4644 114.218 96.4644C120.852 96.4644 126.23 91.0903 126.23 84.4609C126.23 77.8315 120.852 72.4574 114.218 72.4574Z" fill="#BDBDBD"/>
<ellipse cx="146.747" cy="106.055" rx="14.402" ry="14.3924" fill="#BDBDBD"/>
<rect x="-0.353671" width="7.34927" height="1.6037" rx="0.801852" transform="matrix(0.707342 -0.706871 0.707342 0.706871 141.403 104.495)" fill="white" stroke="white" stroke-width="0.5"/>
<rect y="0.353435" width="7.24023" height="1.60371" rx="0.801853" transform="matrix(-0.707343 -0.70687 0.707343 -0.70687 150.165 106.135)" fill="white" stroke="white" stroke-width="0.5"/>
<rect x="145.562" y="101.407" width="1.55211" height="11.6476" rx="0.776054" fill="white" stroke="white" stroke-width="0.5"/>
<path d="M82.6109 141.901C81.7896 141.901 81.0749 141.752 80.4669 141.453C79.8589 141.155 79.3896 140.739 79.0589 140.205C78.7282 139.672 78.5629 139.053 78.5629 138.349H79.9709C79.9709 138.787 80.0722 139.192 80.2749 139.565C80.4776 139.928 80.7709 140.221 81.1549 140.445C81.5496 140.659 82.0349 140.765 82.6109 140.765C83.3682 140.765 83.9549 140.584 84.3709 140.221C84.7869 139.859 84.9949 139.405 84.9949 138.861C84.9949 138.413 84.8989 138.056 84.7069 137.789C84.5149 137.512 84.2536 137.288 83.9229 137.117C83.6029 136.947 83.2296 136.797 82.8029 136.669C82.3869 136.541 81.9496 136.397 81.4909 136.237C80.6269 135.939 79.9869 135.571 79.5709 135.133C79.1549 134.685 78.9469 134.104 78.9469 133.389C78.9362 132.792 79.0749 132.264 79.3629 131.805C79.6509 131.336 80.0562 130.973 80.5789 130.717C81.1122 130.451 81.7416 130.317 82.4669 130.317C83.1816 130.317 83.8002 130.451 84.3229 130.717C84.8562 130.984 85.2669 131.352 85.5549 131.821C85.8536 132.291 86.0082 132.824 86.0189 133.421H84.6109C84.6109 133.112 84.5309 132.808 84.3709 132.509C84.2109 132.2 83.9656 131.949 83.6349 131.757C83.3149 131.565 82.9096 131.469 82.4189 131.469C81.8109 131.459 81.3096 131.613 80.9149 131.933C80.5309 132.253 80.3389 132.696 80.3389 133.261C80.3389 133.741 80.4722 134.109 80.7389 134.365C81.0162 134.621 81.4002 134.835 81.8909 135.005C82.3816 135.165 82.9469 135.352 83.5869 135.565C84.1202 135.757 84.6002 135.981 85.0269 136.237C85.4536 136.493 85.7842 136.824 86.0189 137.229C86.2642 137.635 86.3869 138.152 86.3869 138.781C86.3869 139.315 86.2482 139.821 85.9709 140.301C85.6936 140.771 85.2722 141.155 84.7069 141.453C84.1522 141.752 83.4536 141.901 82.6109 141.901ZM91.1089 141.901C90.1702 141.901 89.4236 141.619 88.8689 141.053C88.3142 140.477 88.0369 139.597 88.0369 138.413V133.773H89.3809V138.269C89.3809 139.923 90.0582 140.749 91.4129 140.749C92.1062 140.749 92.6769 140.504 93.1249 140.013C93.5836 139.512 93.8129 138.803 93.8129 137.885V133.773H95.1569V141.709H93.9409L93.8449 140.285C93.5996 140.787 93.2316 141.181 92.7409 141.469C92.2609 141.757 91.7169 141.901 91.1089 141.901ZM101.609 141.901C100.958 141.901 100.377 141.768 99.8651 141.501C99.3638 141.235 98.9798 140.861 98.7131 140.381L98.5851 141.709H97.3691V130.189H98.7131V135.085C98.9691 134.701 99.3318 134.355 99.8011 134.045C100.281 133.736 100.889 133.581 101.625 133.581C102.414 133.581 103.102 133.763 103.689 134.125C104.276 134.488 104.729 134.984 105.049 135.613C105.38 136.243 105.545 136.957 105.545 137.757C105.545 138.557 105.38 139.272 105.049 139.901C104.729 140.52 104.27 141.011 103.673 141.373C103.086 141.725 102.398 141.901 101.609 141.901ZM101.465 140.733C101.998 140.733 102.468 140.611 102.873 140.365C103.278 140.109 103.598 139.757 103.833 139.309C104.068 138.861 104.185 138.339 104.185 137.741C104.185 137.144 104.068 136.621 103.833 136.173C103.598 135.725 103.278 135.379 102.873 135.133C102.468 134.877 101.998 134.749 101.465 134.749C100.932 134.749 100.462 134.877 100.057 135.133C99.6518 135.379 99.3318 135.725 99.0971 136.173C98.8625 136.621 98.7451 137.144 98.7451 137.741C98.7451 138.339 98.8625 138.861 99.0971 139.309C99.3318 139.757 99.6518 140.109 100.057 140.365C100.462 140.611 100.932 140.733 101.465 140.733ZM108.232 132.013C107.965 132.013 107.741 131.928 107.56 131.757C107.389 131.576 107.304 131.352 107.304 131.085C107.304 130.829 107.389 130.616 107.56 130.445C107.741 130.275 107.965 130.189 108.232 130.189C108.488 130.189 108.707 130.275 108.888 130.445C109.069 130.616 109.16 130.829 109.16 131.085C109.16 131.352 109.069 131.576 108.888 131.757C108.707 131.928 108.488 132.013 108.232 132.013ZM107.56 141.709V133.773H108.904V141.709H107.56ZM111.244 141.709V133.773H112.46L112.572 135.293C112.817 134.771 113.191 134.355 113.692 134.045C114.193 133.736 114.812 133.581 115.548 133.581V134.989H115.18C114.711 134.989 114.279 135.075 113.884 135.245C113.489 135.405 113.175 135.683 112.94 136.077C112.705 136.472 112.588 137.016 112.588 137.709V141.709H111.244ZM121.723 141.709V134.909H120.523V133.773H121.723V132.397C121.723 131.629 121.915 131.069 122.299 130.717C122.683 130.365 123.243 130.189 123.979 130.189H124.779V131.341H124.187C123.782 131.341 123.494 131.427 123.323 131.597C123.152 131.757 123.067 132.035 123.067 132.429V133.773H125.019V134.909H123.067V141.709H121.723ZM129.923 141.901C129.176 141.901 128.504 141.731 127.907 141.389C127.309 141.048 126.835 140.568 126.483 139.949C126.141 139.32 125.971 138.584 125.971 137.741C125.971 136.899 126.147 136.168 126.499 135.549C126.851 134.92 127.325 134.435 127.923 134.093C128.531 133.752 129.208 133.581 129.955 133.581C130.701 133.581 131.373 133.752 131.971 134.093C132.568 134.435 133.037 134.92 133.379 135.549C133.731 136.168 133.907 136.899 133.907 137.741C133.907 138.584 133.731 139.32 133.379 139.949C133.027 140.568 132.547 141.048 131.939 141.389C131.341 141.731 130.669 141.901 129.923 141.901ZM129.923 140.749C130.381 140.749 130.808 140.637 131.203 140.413C131.597 140.189 131.917 139.853 132.163 139.405C132.408 138.957 132.531 138.403 132.531 137.741C132.531 137.08 132.408 136.525 132.163 136.077C131.928 135.629 131.613 135.293 131.219 135.069C130.824 134.845 130.403 134.733 129.955 134.733C129.496 134.733 129.069 134.845 128.675 135.069C128.28 135.293 127.96 135.629 127.715 136.077C127.469 136.525 127.347 137.08 127.347 137.741C127.347 138.403 127.469 138.957 127.715 139.405C127.96 139.853 128.275 140.189 128.659 140.413C129.053 140.637 129.475 140.749 129.923 140.749ZM138.599 141.709C137.874 141.709 137.303 141.533 136.887 141.181C136.471 140.829 136.263 140.195 136.263 139.277V134.909H134.887V133.773H136.263L136.439 131.869H137.607V133.773H139.943V134.909H137.607V139.277C137.607 139.779 137.708 140.12 137.911 140.301C138.114 140.472 138.471 140.557 138.983 140.557H139.815V141.709H138.599ZM145.048 141.901C144.301 141.901 143.629 141.731 143.032 141.389C142.434 141.048 141.96 140.568 141.608 139.949C141.266 139.32 141.096 138.584 141.096 137.741C141.096 136.899 141.272 136.168 141.624 135.549C141.976 134.92 142.45 134.435 143.048 134.093C143.656 133.752 144.333 133.581 145.08 133.581C145.826 133.581 146.498 133.752 147.096 134.093C147.693 134.435 148.162 134.92 148.504 135.549C148.856 136.168 149.032 136.899 149.032 137.741C149.032 138.584 148.856 139.32 148.504 139.949C148.152 140.568 147.672 141.048 147.064 141.389C146.466 141.731 145.794 141.901 145.048 141.901ZM145.048 140.749C145.506 140.749 145.933 140.637 146.328 140.413C146.722 140.189 147.042 139.853 147.288 139.405C147.533 138.957 147.656 138.403 147.656 137.741C147.656 137.08 147.533 136.525 147.288 136.077C147.053 135.629 146.738 135.293 146.344 135.069C145.949 134.845 145.528 134.733 145.08 134.733C144.621 134.733 144.194 134.845 143.8 135.069C143.405 135.293 143.085 135.629 142.84 136.077C142.594 136.525 142.472 137.08 142.472 137.741C142.472 138.403 142.594 138.957 142.84 139.405C143.085 139.853 143.4 140.189 143.784 140.413C144.178 140.637 144.6 140.749 145.048 140.749Z" fill="#4B4B4B"/>
</g>
</svg>
